<svg width="20" height="19" viewBox="0 0 20 19" fill="none" xmlns="http://www.w3.org/2000/svg">
<path d="M10.0008 0.154053C7.46603 0.154053 7.14792 0.165136 6.15235 0.210442C5.15873 0.255943 4.4805 0.41325 3.88705 0.644058C3.27318 0.882449 2.75245 1.20134 2.23367 1.72032C1.7145 2.2391 1.39561 2.75983 1.15644 3.3735C0.925045 3.96715 0.767544 4.64557 0.722821 5.6388C0.678293 6.63437 0.666626 6.95268 0.666626 9.48748C0.666626 12.0223 0.677904 12.3394 0.723016 13.335C0.768711 14.3286 0.926018 15.0068 1.15663 15.6003C1.39522 16.2142 1.71411 16.7349 2.23309 17.2537C2.75168 17.7728 3.2724 18.0925 3.88588 18.3309C4.47972 18.5617 5.15814 18.719 6.15157 18.7645C7.14714 18.8098 7.46506 18.8209 9.99967 18.8209C12.5347 18.8209 12.8518 18.8098 13.8474 18.7645C14.841 18.719 15.52 18.5617 16.1138 18.3309C16.7275 18.0925 17.2475 17.7728 17.7661 17.2537C18.2852 16.7349 18.6041 16.2142 18.8433 15.6005C19.0727 15.0068 19.2302 14.3284 19.2769 13.3352C19.3216 12.3396 19.3333 12.0223 19.3333 9.48748C19.3333 6.95268 19.3216 6.63456 19.2769 5.639C19.2302 4.64538 19.0727 3.96715 18.8433 3.3737C18.6041 2.75983 18.2852 2.2391 17.7661 1.72032C17.2469 1.20115 16.7277 0.882255 16.1133 0.644058C15.5183 0.41325 14.8396 0.255943 13.846 0.210442C12.8504 0.165136 12.5335 0.154053 9.99792 0.154053H10.0008ZM9.16355 1.83601C9.41205 1.83563 9.68933 1.83601 10.0008 1.83601C12.4929 1.83601 12.7882 1.84496 13.7723 1.88968C14.6823 1.93129 15.1762 2.08335 15.5052 2.2111C15.9408 2.38027 16.2513 2.58249 16.5778 2.90916C16.9045 3.23583 17.1067 3.54695 17.2762 3.98251C17.404 4.31112 17.5562 4.80502 17.5977 5.71503C17.6424 6.69893 17.6521 6.99448 17.6521 9.48534C17.6521 11.9762 17.6424 12.2718 17.5977 13.2557C17.5561 14.1657 17.404 14.6596 17.2762 14.9882C17.1071 15.4237 16.9045 15.7339 16.5778 16.0604C16.2511 16.387 15.941 16.5892 15.5052 16.7584C15.1766 16.8868 14.6823 17.0384 13.7723 17.08C12.7884 17.1248 12.4929 17.1345 10.0008 17.1345C7.50861 17.1345 7.21325 17.1248 6.22935 17.08C5.31934 17.038 4.82545 16.886 4.49625 16.7582C4.06069 16.5891 3.74957 16.3868 3.4229 16.0602C3.09623 15.7335 2.89401 15.4232 2.72445 14.9874C2.5967 14.6588 2.44445 14.1649 2.40303 13.2549C2.35831 12.271 2.34937 11.9754 2.34937 9.48301C2.34937 6.99059 2.35831 6.69659 2.40303 5.71269C2.44464 4.80268 2.5967 4.30879 2.72445 3.97979C2.89362 3.54423 3.09623 3.23311 3.4229 2.90644C3.74957 2.57977 4.06069 2.37755 4.49625 2.20799C4.82525 2.07966 5.31934 1.92799 6.22935 1.88618C7.09036 1.84729 7.42403 1.83563 9.16355 1.83368V1.83601ZM14.9829 3.38575C14.3646 3.38575 13.8629 3.88684 13.8629 4.50537C13.8629 5.12371 14.3646 5.62539 14.9829 5.62539C15.6013 5.62539 16.103 5.12371 16.103 4.50537C16.103 3.88704 15.6013 3.38536 14.9829 3.38536V3.38575ZM10.0008 4.69438C7.35383 4.69438 5.20773 6.84048 5.20773 9.48748C5.20773 12.1345 7.35383 14.2796 10.0008 14.2796C12.6478 14.2796 14.7932 12.1345 14.7932 9.48748C14.7932 6.84048 12.6476 4.69438 10.0006 4.69438H10.0008ZM10.0008 6.37634C11.719 6.37634 13.112 7.76916 13.112 9.48748C13.112 11.2056 11.719 12.5986 10.0008 12.5986C8.28251 12.5986 6.88969 11.2056 6.88969 9.48748C6.88969 7.76916 8.28251 6.37634 10.0008 6.37634V6.37634Z" fill="white"/>
</svg>
