<svg width="28" height="29" viewBox="0 0 28 29" fill="none" xmlns="http://www.w3.org/2000/svg">
<path d="M4.31964 20.5137C6.40368 20.631 8.22609 20.1438 10.0034 18.8537C8.20805 18.5469 6.96304 17.7259 6.2864 16.0298C6.80967 15.9577 7.26978 16.093 7.81109 15.8765C6.04282 15.1006 4.89704 13.9368 4.85193 11.9249C5.41128 11.97 5.83531 12.3399 6.50293 12.2858C4.879 10.6979 4.38279 8.96575 5.40226 6.86366C7.09836 8.81238 9.08317 10.1386 11.51 10.7611C11.6454 10.7972 11.7717 10.8333 11.907 10.8603C12.5295 11.0047 13.2693 11.3114 13.6482 11.2663C14.2978 11.1851 13.6482 10.4363 13.8106 9.46195C14.3249 6.43061 17.6629 5.05027 20.1349 6.82757C20.8567 7.35084 21.425 7.34182 22.1377 7.02605C22.5076 6.86366 22.8866 6.70127 23.3286 6.51181C23.2294 7.37791 22.5618 7.85606 22.0295 8.49661C22.634 8.63194 23.1211 8.46053 23.6805 8.28009C23.491 8.90259 23.0219 9.25445 22.5979 9.59728C22.1558 9.94913 21.9844 10.319 21.9663 10.8964C21.6957 19.6386 11.7627 26.3959 4.96922 21.0189C4.31063 20.4956 4.95117 21.0189 4.31964 20.5137Z" fill="white"/>
</svg>
